<?xml version="1.0" encoding="utf-8"?>
<!-- Generator: Adobe Illustrator 19.0.0, SVG Export Plug-In . SVG Version: 6.00 Build 0)  -->
<svg version="1.1" id="Layer_1" xmlns="http://www.w3.org/2000/svg" xmlns:xlink="http://www.w3.org/1999/xlink" x="0px" y="0px"
	 viewBox="-429 303 558 240" style="enable-background:new -429 303 558 240;" xml:space="preserve">
<style type="text/css">
	.st0{fill:none;}
	.st1{fill:#FF6C2C;}
</style>
<rect x="-429" y="303" class="st0" width="558" height="240"/>
<g>
	<polygon class="st1" points="-321.5,421.6 -321.5,382.2 -347,382.2 -347,462.3 -321.5,462.3 	"/>
	<polygon class="st1" points="-238.7,462.3 -288.1,421.6 -238.7,382.2 -274.9,382.2 -321.5,421.6 -274.9,462.3 	"/>
	<path class="st1" d="M-122.4,434.3v-52.1H-148v47.5c0,10.2-3.8,13.2-14.3,13.2h-25.3c-10.5,0-14.3-3-14.3-13.2v-47.5h-25.6v52.1
		c0,19.9,10.7,29.4,34.2,29.4h36.6C-133.1,463.8-122.4,454.3-122.4,434.3"/>
	<polygon class="st1" points="-76.8,421.6 -76.8,382.2 -102.3,382.2 -102.3,462.3 -76.8,462.3 	"/>
	<polygon class="st1" points="5.9,462.3 -43.5,421.6 5.9,382.2 -30.2,382.2 -76.8,421.6 -30.2,462.3 	"/>
	<path class="st1" d="M78.8,382.2H56.2L6,462.2h29.4l8.5-13.9h47.4l8.5,13.9h29.4L78.8,382.2z M52.6,432.4l14.9-25.5l14.9,25.5H52.6
		z"/>
</g>
</svg>
